# xmcd
#
# Track frame offsets: 
#        150
#        28670
#        55340
#        84572
#        145611
#        149119
#        168519
#
# Disc length: 2560 seconds
#
# Revision: 0
# Processed by: cddbd v1.5.2PL0 Copyright (c) Steve Scherf et al.
# Submitted via: ExactAudioCopyFreeDBPlugin 1.0
#
DISCID=6209fe07
DTITLE=Popa Chubby - Live AT FIP
DYEAR=2003
DGENRE=Blues
TTITLE0=Hey Joe
TTITLE1=(Sittin'On) The Dock Of The Bay
TTITLE2=Time Is Killing Me
TTITLE3=Sweet Goddess Of Love And Beer
TTITLE4=Musicians Introduction
TTITLE5=Fire
TTITLE6=Daddy Played The Guitar (And Mama was A Disco Queen)
EXTD=
EXTT0=
EXTT1=
EXTT2=
EXTT3=
EXTT4=
EXTT5=
EXTT6=
PLAYORDER=
